<?xml version="1.0" encoding="UTF-8"?>
<svg id="Capa_1" data-name="Capa 1" xmlns="http://www.w3.org/2000/svg" xmlns:xlink="http://www.w3.org/1999/xlink" viewBox="0 0 1920 1080">
  <defs>
    <style>
      .cls-1 {
        fill: #234256;
      }

      .cls-2 {
        fill: url(#Degradado_sin_nombre_7-2);
      }

      .cls-3 {
        fill: url(#Degradado_sin_nombre_7);
      }
    </style>
    <linearGradient id="Degradado_sin_nombre_7" data-name="Degradado sin nombre 7" x1="1774.57" y1="580.68" x2="1894.03" y2="580.68" gradientUnits="userSpaceOnUse">
      <stop offset="0" stop-color="#0196fd"/>
      <stop offset="1" stop-color="#00f6bf"/>
    </linearGradient>
    <linearGradient id="Degradado_sin_nombre_7-2" data-name="Degradado sin nombre 7" x1="28.82" y1="540" x2="798.78" y2="540" xlink:href="#Degradado_sin_nombre_7"/>
  </defs>
  <path class="cls-1" d="M553.8,638.05c-2.84,2.03-6.13,4.1-9.88,6.23-3.75,2.13-7.9,4.06-12.46,5.77-4.56,1.72-9.68,3.14-15.35,4.26-5.67,1.11-11.85,1.67-18.54,1.67-11.75,0-22.24-1.98-31.46-5.93-9.22-3.95-17.07-9.32-23.56-16.11-6.49-6.79-11.45-14.74-14.89-23.86-3.45-9.12-5.17-18.84-5.17-29.18s1.82-20.06,5.47-29.18c3.65-9.12,8.76-17.02,15.35-23.71,6.58-6.69,14.48-12.01,23.71-15.96,9.22-3.95,19.4-5.93,30.55-5.93,11.75,0,22.14,1.98,31.16,5.93,9.01,3.95,16.57,9.27,22.64,15.96,6.08,6.69,10.64,14.59,13.68,23.71,3.04,9.12,4.56,18.84,4.56,29.18,0,1.82-.1,3.7-.3,5.62-.2,1.93-.51,3.9-.91,5.93h-115.81c2.23,11.75,7.6,21.02,16.11,27.81,8.51,6.79,18.54,10.18,30.09,10.18,10.53,0,19-1.47,25.38-4.41,6.38-2.93,11.6-6.03,15.65-9.27l13.98,21.28ZM540.42,570.57c-.2-12.36-4.1-21.98-11.7-28.87-7.6-6.89-17.78-10.34-30.55-10.34s-22.85,3.6-30.85,10.79c-8.01,7.2-13.02,16.67-15.05,28.42h88.15Z"/>
  <path class="cls-1" d="M709.06,632.28c-6.08,7.29-13.43,13.02-22.04,17.17-8.61,4.15-18.39,6.23-29.33,6.23-10.33,0-20.01-1.98-29.03-5.93-9.02-3.95-16.82-9.32-23.4-16.11-6.59-6.79-11.81-14.69-15.65-23.71-3.85-9.01-5.78-18.69-5.78-29.03s1.92-20.01,5.78-29.03c3.85-9.01,9.07-16.92,15.65-23.71,6.58-6.79,14.39-12.16,23.4-16.11,9.01-3.95,18.69-5.93,29.03-5.93s19.35,1.88,27.66,5.62c8.31,3.75,15.4,8.87,21.28,15.35l.3-97.78h27.66v223.62h-24.32l-1.22-20.67ZM612.1,580.91c0,6.69,1.26,13.02,3.8,19,2.53,5.98,5.97,11.2,10.33,15.65,4.35,4.46,9.42,8.01,15.2,10.64,5.78,2.64,12.01,3.95,18.69,3.95,7.49,0,14.23-1.26,20.21-3.8,5.97-2.53,11.04-6.03,15.2-10.49,4.15-4.46,7.34-9.67,9.57-15.65,2.23-5.97,3.34-12.41,3.34-19.3s-1.17-13.32-3.49-19.3c-2.33-5.97-5.62-11.19-9.88-15.65-4.26-4.46-9.32-7.95-15.2-10.49-5.88-2.53-12.46-3.8-19.76-3.8-6.69,0-12.92,1.32-18.69,3.95-5.77,2.64-10.84,6.18-15.2,10.64-4.36,4.46-7.8,9.68-10.33,15.65-2.54,5.98-3.8,12.31-3.8,19Z"/>
  <path class="cls-1" d="M771.67,504.1h27.96v148.85h-27.96v-148.85Z"/>
  <path class="cls-1" d="M966.81,618.29c-6.28,11.35-15.15,20.42-26.6,27.2-11.45,6.79-24.47,10.18-39.06,10.18-10.54,0-20.37-1.93-29.48-5.77-9.12-3.85-17.13-9.17-24.01-15.96-6.89-6.79-12.31-14.74-16.26-23.86-3.95-9.12-5.93-18.84-5.93-29.18s1.98-20.06,5.93-29.18c3.95-9.12,9.37-17.07,16.26-23.86,6.89-6.79,14.89-12.11,24.01-15.96,9.12-3.85,18.95-5.77,29.48-5.77,14.59,0,27.61,3.4,39.06,10.18,11.45,6.79,20.31,15.86,26.6,27.2l-23.71,13.07c-4.06-7.09-9.73-13.02-17.02-17.78-7.29-4.76-15.5-7.14-24.62-7.14-6.69,0-12.92,1.27-18.69,3.8-5.77,2.54-10.84,6.03-15.2,10.49-4.36,4.46-7.8,9.68-10.33,15.65-2.54,5.98-3.8,12.41-3.8,19.3s1.26,13.33,3.8,19.3c2.53,5.98,5.97,11.2,10.33,15.65,4.35,4.46,9.42,7.95,15.2,10.49,5.78,2.54,12.01,3.8,18.69,3.8,9.12,0,17.32-2.38,24.62-7.14,7.29-4.76,12.97-10.69,17.02-17.78l23.71,13.07Z"/>
  <path class="cls-1" d="M985.96,531.97c2.84-2.84,6.28-5.77,10.33-8.81,4.05-3.04,8.71-5.82,13.98-8.36,5.27-2.53,11.04-4.61,17.33-6.23,6.28-1.62,13.07-2.43,20.37-2.43,8.91,0,17.02,1.27,24.32,3.8,7.3,2.54,13.57,6.23,18.85,11.09,5.27,4.86,9.37,10.79,12.31,17.78,2.93,6.99,4.41,14.95,4.41,23.86v90.27h-24.32l-1.82-21.58c-5.68,7.7-12.67,13.68-20.97,17.93-8.31,4.26-17.93,6.38-28.87,6.38-7.29,0-13.93-1.12-19.91-3.34-5.98-2.23-11.09-5.32-15.35-9.27-4.26-3.95-7.55-8.61-9.88-13.98-2.33-5.37-3.5-11.19-3.5-17.48,0-12.97,5.17-23.45,15.5-31.46,10.34-8,25.33-12.01,44.99-12.01h37.08v-3.04c0-11.14-2.84-19.55-8.51-25.23-5.67-5.67-13.78-8.51-24.32-8.51-4.86,0-9.57.61-14.13,1.82s-8.71,2.79-12.46,4.71c-3.75,1.93-7.19,4.06-10.33,6.38-3.14,2.33-5.83,4.71-8.06,7.14l-17.02-19.45ZM1080.79,589.72l-34.04-.3c-11.55-.2-20.11,1.72-25.68,5.78-5.58,4.06-8.36,9.12-8.36,15.2,0,5.47,2.17,10.44,6.54,14.89,4.35,4.46,10.99,6.69,19.91,6.69,5.47,0,10.74-.96,15.81-2.89,5.06-1.92,9.47-4.66,13.22-8.21,3.75-3.54,6.79-7.75,9.12-12.61,2.33-4.86,3.49-10.13,3.49-15.81v-2.74Z"/>
  <path class="cls-1" d="M1170.46,652.95h-27.96v-223.62h27.96v223.62Z"/>
  <path class="cls-1" d="M1312.3,491.85c-2.43-2.42-5.32-4.68-8.66-6.78-3.34-2.09-6.94-3.97-10.79-5.62-3.85-1.65-7.8-2.98-11.85-3.97-4.06-.99-8.11-1.49-12.16-1.49-8.31,0-14.54,1.71-18.69,5.13-4.16,3.42-6.23,8.22-6.23,14.39s2.18,10.64,6.54,14.06c4.36,3.42,9.98,6.45,16.87,9.1,7.5,2.87,15.91,5.79,25.23,8.77,9.32,2.98,18.09,6.95,26.29,11.91,8.21,4.96,15.09,11.41,20.67,19.35,5.57,7.94,8.36,18.42,8.36,31.43,0,10.37-1.88,19.8-5.62,28.28-3.75,8.49-9.12,15.71-16.11,21.67-6.99,5.96-15.4,10.53-25.23,13.73-9.83,3.19-20.72,4.8-32.67,4.8-8.11,0-16.16-.88-24.16-2.65-8.01-1.76-15.55-4.14-22.64-7.11-7.1-2.98-13.58-6.45-19.45-10.42-5.88-3.97-10.94-8.27-15.2-12.9l26.75-34.07c2.63,2.87,5.97,5.68,10.03,8.44,4.05,2.76,8.51,5.19,13.37,7.28,4.86,2.1,9.98,3.75,15.35,4.96,5.37,1.21,10.79,1.82,16.26,1.82,10.13,0,17.88-1.82,23.25-5.46,5.37-3.64,8.06-8.98,8.06-16.04,0-3.53-.86-6.56-2.58-9.1-1.72-2.53-4.06-4.85-6.99-6.95-2.94-2.09-6.38-3.91-10.34-5.46-3.95-1.54-8.16-3.09-12.61-4.63-7.7-2.42-15.76-5.18-24.16-8.27-8.41-3.09-16.16-7.11-23.25-12.08-7.09-4.96-12.97-11.19-17.63-18.69-4.66-7.49-6.99-16.98-6.99-28.45,0-10.36,1.72-19.68,5.17-27.95,3.44-8.27,8.36-15.33,14.74-21.17,6.38-5.84,14.18-10.36,23.4-13.56,9.22-3.19,19.5-4.8,30.85-4.8,7.29,0,14.44.72,21.43,2.15,6.99,1.44,13.57,3.42,19.76,5.96,6.18,2.54,11.8,5.57,16.87,9.1,5.06,3.53,9.12,7.39,12.16,11.58l-27.36,33.74Z"/>
  <path class="cls-1" d="M1357.89,579.69c0-10.74,2.07-20.77,6.23-30.09,4.15-9.32,9.88-17.42,17.17-24.32,7.29-6.89,16-12.36,26.14-16.41,10.13-4.05,21.17-6.08,33.13-6.08s22.95,2.03,32.98,6.08c10.03,4.06,18.69,9.53,25.99,16.41,7.29,6.89,13.02,15,17.17,24.32,4.15,9.32,6.23,19.35,6.23,30.09s-2.08,20.47-6.23,29.79c-4.16,9.32-9.88,17.43-17.17,24.32-7.29,6.89-15.96,12.36-25.99,16.41-10.03,4.05-21.02,6.08-32.98,6.08s-23-2.03-33.13-6.08c-10.13-4.05-18.84-9.52-26.14-16.41-7.29-6.89-13.02-14.99-17.17-24.32-4.16-9.32-6.23-19.25-6.23-29.79ZM1401.66,579.08c0,5.27.96,10.24,2.89,14.89,1.92,4.66,4.56,8.77,7.9,12.31,3.34,3.55,7.34,6.33,12.01,8.36,4.66,2.03,9.83,3.04,15.5,3.04s10.84-1.01,15.5-3.04c4.66-2.02,8.66-4.81,12.01-8.36,3.34-3.54,5.97-7.65,7.9-12.31,1.92-4.66,2.89-9.62,2.89-14.89s-.96-10.28-2.89-15.05c-1.93-4.76-4.56-8.86-7.9-12.31-3.34-3.44-7.35-6.18-12.01-8.21-4.66-2.02-9.83-3.04-15.5-3.04s-10.84,1.02-15.5,3.04c-4.66,2.03-8.66,4.76-12.01,8.21-3.34,3.45-5.98,7.55-7.9,12.31-1.93,4.76-2.89,9.78-2.89,15.05Z"/>
  <path class="cls-1" d="M1529.02,538.4v-35.56h22.49v-11.25c0-11.75,1.67-21.58,5.01-29.48,3.34-7.9,7.8-14.23,13.37-19,5.57-4.76,12.01-8.15,19.3-10.18,7.29-2.02,14.89-3.04,22.8-3.04,3.85,0,7.7.15,11.55.46,3.85.3,7.7.86,11.55,1.67v38.3c-6.28-1.22-12.26-1.82-17.93-1.82-6.08,0-11.09,1.22-15.05,3.65-3.95,2.43-5.93,7.1-5.93,13.98v16.72h38.91v35.56h-38.91v114.54h-44.68v-114.54h-22.49Z"/>
  <path class="cls-1" d="M1671.12,502.84l9.73-39.51h34.95v39.51h40.43v35.56h-40.43v55.58c0,8.92,1.47,15.15,4.41,18.69,2.94,3.55,7.65,5.32,14.13,5.32,5.27,0,12.56-1.11,21.88-3.34v35.87c-13.37,3.65-25.53,5.47-36.47,5.47-14.79,0-26.6-3.54-35.41-10.64-8.81-7.09-13.22-18.24-13.22-33.43v-73.51h-22.8v-35.56h22.8Z"/>
  <path class="cls-3" d="M1847.69,519.57v48.81h46.35v24.57h-46.35v48.83h-26.78v-48.83h-46.35v-24.57h46.35v-48.81h26.78Z"/>
  <polygon class="cls-2" points="798.78 1026.34 28.82 1026.34 28.82 53.66 798.78 53.66 798.78 353.96 772.53 353.96 772.53 79.9 55.06 79.9 55.06 1000.1 772.53 1000.1 772.53 734.91 798.78 734.91 798.78 1026.34"/>
  <rect class="cls-1" x="771.67" y="428.26" width="27.96" height="43.39"/>
  <polygon class="cls-1" points="395.19 428.38 382.12 428.38 378.31 428.38 291.91 578.03 205.5 428.38 202.42 428.38 191.36 428.38 176.28 428.38 176.28 654.43 202.42 654.43 202.42 475.32 278.36 606.85 305.45 606.85 382.12 474.06 382.12 654.43 408.26 654.43 408.26 428.38 395.19 428.38"/>
</svg>